<svg xmlns="http://www.w3.org/2000/svg" xmlns:xlink="http://www.w3.org/1999/xlink" id="Layer_1" x="0" y="0" version="1.1" viewBox="0 0 512 512" xml:space="preserve" style="enable-background:new 0 0 512 512"><style type="text/css">.st0{fill:url(#SVGID_1_)}.st1{fill:url(#SVGID_2_)}.st2{fill:url(#SVGID_3_)}.st3{fill:url(#SVGID_4_)}</style><linearGradient id="SVGID_1_" x1="120.745" x2="418.165" y1="341.485" y2="443.192" gradientTransform="matrix(1 0 0 -1 0 512)" gradientUnits="userSpaceOnUse"><stop offset="0" style="stop-color:#235287"/><stop offset="1" style="stop-color:#2d77b5"/></linearGradient><polygon points="156.9 214.6 256.2 115.3 355.6 214.7 413.4 156.9 256.2 -.3 99.1 156.8" class="st0"/><linearGradient id="SVGID_2_" x1="14.441" x2="115.218" y1="231.919" y2="288.553" gradientTransform="matrix(1 0 0 -1 0 512)" gradientUnits="userSpaceOnUse"><stop offset="0" style="stop-color:#1a3a69"/><stop offset="1" style="stop-color:#235287"/></linearGradient><polygon points="58.3 197.6 116.1 255.4 58.3 313.3 .5 255.4" class="st1"/><linearGradient id="SVGID_3_" x1="117.214" x2="418.881" y1="430.018" y2="341.309" gradientUnits="userSpaceOnUse"><stop offset="0" style="stop-color:#f2ca38"/><stop offset="1" style="stop-color:#e69c49"/></linearGradient><polygon points="156.9 296.3 256.2 395.6 355.6 296.2 413.5 354 413.4 354 256.2 511.2 99.1 354.1 99 354" class="st2"/><linearGradient id="SVGID_4_" x1="405.48" x2="508.574" y1="280.187" y2="227.881" gradientUnits="userSpaceOnUse"><stop offset="0" style="stop-color:#e69c49"/><stop offset="1" style="stop-color:#e69049"/></linearGradient><polygon points="396.4 255.5 454.2 197.7 512 255.5 454.2 313.3" class="st3"/></svg>